HIERARCHY
ROOT Hips
{
	OFFSET 0.000000 0.000000 0.000000
	CHANNELS 6 Xposition Yposition Zposition Xrotation Yrotation Zrotation
	JOINT LeftUpLeg_virtual
	{
		OFFSET 0.000000 0.000000 0.000000
		CHANNELS 3 Xrotation Yrotation Zrotation
		JOINT LeftUpLeg
		{
			OFFSET 15.427100 -6.655098 0.678600
			CHANNELS 3 Xrotation Yrotation Zrotation
			JOINT LeftLeg
			{
				OFFSET 4.081073 -39.591068 13.024000
				CHANNELS 3 Xrotation Yrotation Zrotation
				JOINT LeftFoot
				{
					OFFSET -4.081074 -37.707932 -15.979700
					CHANNELS 3 Xrotation Yrotation Zrotation
					JOINT LeftToeBase
					{
						OFFSET 5.346399 -15.068900 20.645000
						CHANNELS 3 Xrotation Yrotation Zrotation
						JOINT LeftToe_End
						{
							OFFSET 2.754700 0.931300 11.300900
							CHANNELS 3 Xrotation Yrotation Zrotation
							End Site
							{
								OFFSET 0 0 0
							}
						}
					}
				}
			}
		}
	}
	JOINT RightUpLeg_virtual
	{
		OFFSET 0.000000 0.000000 0.000000
		CHANNELS 3 Xrotation Yrotation Zrotation
		JOINT RightUpLeg
		{
			OFFSET -15.569500 -6.655098 0.678600
			CHANNELS 3 Xrotation Yrotation Zrotation
			JOINT RightLeg
			{
				OFFSET -4.081825 -39.591045 13.023800
				CHANNELS 3 Xrotation Yrotation Zrotation
				JOINT RightFoot
				{
					OFFSET 4.081824 -37.707954 -15.979600
					CHANNELS 3 Xrotation Yrotation Zrotation
					JOINT RightToeBase
					{
						OFFSET -5.346400 -15.068900 20.645000
						CHANNELS 3 Xrotation Yrotation Zrotation
						JOINT RightToe_End
						{
							OFFSET -2.754700 0.931300 11.300900
							CHANNELS 3 Xrotation Yrotation Zrotation
							End Site
							{
								OFFSET 0 0 0
							}
						}
					}
				}
			}
		}
	}
	JOINT Spine_virtual
	{
		OFFSET 0.000000 0.000000 0.000000
		CHANNELS 3 Xrotation Yrotation Zrotation
		JOINT Spine
		{
			OFFSET -0.279200 12.230698 -2.892100
			CHANNELS 3 Xrotation Yrotation Zrotation
			JOINT Spine1
			{
				OFFSET -0.232667 10.192268 -1.242267
				CHANNELS 3 Xrotation Yrotation Zrotation
				JOINT Spine1_split
				{
					OFFSET -0.232667 10.192268 -1.242267
					CHANNELS 3 Xrotation Yrotation Zrotation
					JOINT Spine2
					{
						OFFSET -0.232667 10.192268 -1.242267
						CHANNELS 3 Xrotation Yrotation Zrotation
						JOINT Neck_virtual
						{
							OFFSET 0.000000 0.000000 0.000000
							CHANNELS 3 Xrotation Yrotation Zrotation
							JOINT Neck
							{
								OFFSET -0.418800 17.814194 8.416900
								CHANNELS 3 Xrotation Yrotation Zrotation
								JOINT Head
								{
									OFFSET 0.000000 7.031097 3.806800
									CHANNELS 3 Xrotation Yrotation Zrotation
									JOINT HeadTop_End
									{
										OFFSET 0.000000 24.646606 12.978600
										CHANNELS 3 Xrotation Yrotation Zrotation
										End Site
										{
											OFFSET 0 0 0
										}
									}
								}
							}
						}
						JOINT LeftShoulder_virtual
						{
							OFFSET 0.000000 0.000000 0.000000
							CHANNELS 3 Xrotation Yrotation Zrotation
							JOINT LeftShoulder
							{
								OFFSET 8.476499 7.247704 -3.868750
								CHANNELS 3 Xrotation Yrotation Zrotation
								JOINT LeftShoulder_split
								{
									OFFSET 8.476499 7.247704 -3.868750
									CHANNELS 3 Xrotation Yrotation Zrotation
									JOINT LeftArm
									{
										OFFSET 9.308998 -2.777710 0.208600
										CHANNELS 3 Xrotation Yrotation Zrotation
										JOINT LeftForeArm
										{
											OFFSET 29.972298 0.000000 0.000000
											CHANNELS 3 Xrotation Yrotation Zrotation
											JOINT LeftHand
											{
												OFFSET 26.026505 0.000000 0.000000
												CHANNELS 3 Xrotation Yrotation Zrotation
												End Site
												{
													OFFSET 0 0 0
												}
											}
										}
									}
								}
							}
						}
						JOINT RightShoulder_virtual
						{
							OFFSET 0.000000 0.000000 0.000000
							CHANNELS 3 Xrotation Yrotation Zrotation
							JOINT RightShoulder
							{
								OFFSET -7.570500 7.247704 -3.868750
								CHANNELS 3 Xrotation Yrotation Zrotation
								JOINT RightShoulder_split
								{
									OFFSET -7.570500 7.247704 -3.868750
									CHANNELS 3 Xrotation Yrotation Zrotation
									JOINT RightArm
									{
										OFFSET -9.308998 -2.777710 0.208500
										CHANNELS 3 Xrotation Yrotation Zrotation
										JOINT RightForeArm
										{
											OFFSET -29.972300 0.000000 0.000000
											CHANNELS 3 Xrotation Yrotation Zrotation
											JOINT RightHand
											{
												OFFSET -26.026505 0.000000 0.000000
												CHANNELS 3 Xrotation Yrotation Zrotation
												End Site
												{
													OFFSET 0 0 0
												}
											}
										}
									}
								}
							}
						}
					}
				}
			}
		}
	}
}
MOTION
Frames: 4
Frame Time: 0.03333333
-0.370260 77.479622 -14.378860 0.000000 0.000000 0.000000 5.725664 -57.700352 6.502630 -35.735376 8.545924 31.261175 38.542139 -16.568483 -0.535102 -2.913271 6.346230 -24.926029 0.362558 -5.450183 1.291001 0.000000 0.000000 0.000000 4.704957 -54.936345 5.357509 -31.271686 -21.701046 -35.152839 34.977009 21.317232 0.744951 -11.648425 -12.975425 24.853836 11.403434 6.084593 -11.036527 0.000000 0.000000 0.000000 -0.733042 -49.811207 2.581819 12.854539 4.953315 1.531312 8.942277 -6.845602 -0.924387 0.213617 0.304399 -0.109100 0.000000 0.000000 0.000000 10.473422 -2.910579 -2.410484 16.406970 36.506159 -3.349150 17.031097 51.338724 -21.573492 0.000000 0.000000 0.000000 7.480945 -6.597773 -2.424802 2.963295 -9.641650 -10.331132 -2.048340 -3.611634 -3.589912 -40.351047 0.663560 -30.382683 37.745534 -26.612751 25.474198 0.000000 0.000000 0.000000 6.475509 -5.574254 -0.525044 -8.687626 10.859686 13.012672 12.581795 -2.584405 -3.207717 10.319685 -25.667586 51.894746 -14.858592 46.501396 8.567366 0.000000 0.000000 0.000000 
-0.601427 77.594650 -14.155010 0.000000 0.000000 0.000000 5.388676 -56.863715 5.910295 -35.304551 8.788982 31.580527 38.955366 -16.569745 -0.482636 -2.508288 6.066082 -24.869528 -0.153425 -5.563998 1.770244 0.000000 0.000000 0.000000 4.504567 -54.626149 4.972635 -30.869163 -21.663919 -34.771011 34.049111 21.204186 0.759446 -11.381051 -12.825689 25.501360 10.191710 6.224695 -10.976360 0.000000 0.000000 0.000000 -1.525254 -50.002859 1.584080 12.551402 4.471083 1.780310 9.015814 -6.648452 -0.716744 -0.055934 0.293078 -0.079941 0.000000 0.000000 0.000000 10.165039 -2.572798 -2.547674 17.420051 35.895612 -3.225225 14.544710 52.172694 -20.252611 0.000000 0.000000 0.000000 7.401265 -6.368756 -2.438166 2.605866 -10.203181 -10.227210 -0.219709 -2.815922 -4.388709 -38.735249 4.094994 -30.201830 37.484515 -23.588197 24.616133 0.000000 0.000000 0.000000 6.147044 -5.166966 -0.343234 -9.524952 9.095070 12.619397 14.043018 -7.782954 -0.910168 6.720580 -24.732228 49.223626 -12.062896 42.887161 7.143099 0.000000 0.000000 0.000000 
-0.861507 77.788658 -13.849457 0.000000 0.000000 0.000000 4.919441 -56.358264 5.014322 -34.484491 9.345846 31.888763 38.853125 -16.144183 -0.467122 -2.539446 6.078298 -23.925564 -1.469306 -5.680572 2.221591 0.000000 0.000000 0.000000 4.477894 -54.291336 4.423287 -30.146334 -21.470288 -34.263108 33.043393 21.219624 0.719167 -10.991522 -12.773395 26.471429 9.123279 6.367165 -10.691791 0.000000 0.000000 0.000000 -1.335413 -49.907113 0.764093 11.665722 3.449533 1.776745 8.620323 -6.301016 -0.109231 -0.205780 0.348692 0.053369 0.000000 0.000000 0.000000 9.781363 -2.352034 -1.850889 17.278184 34.506894 -2.541664 14.028143 51.680196 -22.653306 0.000000 0.000000 0.000000 6.763144 -6.040615 -1.875336 1.908516 -11.160635 -11.293947 0.323880 -2.812722 -3.574425 -33.538599 9.114299 -29.494502 38.847141 -22.413257 25.223023 0.000000 0.000000 0.000000 5.506478 -4.945325 0.233640 -10.711495 6.321401 11.886215 13.874403 -11.385147 0.355118 0.093375 -26.663006 46.707183 -7.368891 40.946567 4.756031 0.000000 0.000000 0.000000 
-1.092259 77.977951 -13.519730 0.000000 0.000000 0.000000 4.462151 -56.261211 4.039587 -33.637346 10.131480 32.130111 38.541180 -15.278635 -0.502798 -3.164295 6.346611 -22.182190 -2.361725 -5.712432 2.358991 0.000000 0.000000 0.000000 4.523910 -54.068239 3.805578 -29.319065 -21.162930 -33.786989 32.237465 21.358948 0.566487 -10.915725 -12.971094 27.560754 8.747204 6.465111 -10.312740 0.000000 0.000000 0.000000 0.043468 -49.543296 0.419852 10.317329 2.027912 1.554756 7.830430 -5.858658 0.691047 -0.187623 0.237944 0.108626 0.000000 0.000000 0.000000 9.281221 -2.261529 -0.555237 15.929828 32.512657 -1.198803 15.510627 49.533543 -28.347360 0.000000 0.000000 0.000000 5.733045 -5.666410 -0.951719 1.024444 -12.206316 -13.348574 0.853004 -3.321557 -1.592882 -26.225568 15.253761 -28.472386 41.631581 -23.716976 27.280626 0.000000 0.000000 0.000000 4.819916 -4.870724 1.001536 -12.039388 3.419561 10.092426 11.205997 -11.436806 0.017674 -9.431549 -31.898233 43.870927 -1.421403 41.492897 1.717991 0.000000 0.000000 0.000000 
